<svg width="51" height="50" viewBox="0 0 51 50" fill="none" xmlns="http://www.w3.org/2000/svg">
<g clip-path="url(#clip0)">
<path d="M25.5 50C39.3071 50 50.5 38.8071 50.5 25C50.5 11.1929 39.3071 0 25.5 0C11.6929 0 0.5 11.1929 0.5 25C0.5 38.8071 11.6929 50 25.5 50Z" fill="#F4F4F4"/>
<path d="M36.8 32.4H14.2C13.5 32.4 13 31.9 13 31.2V16.2C13 15.5 13.5 15 14.2 15H36.8C37.5 15 38 15.5 38 16.2V31.2C38 31.9 37.5 32.4 36.8 32.4Z" stroke="#979797" stroke-miterlimit="10"/>
<path d="M20.3 35H30.7" stroke="#979797" stroke-miterlimit="10"/>
<path d="M21.8 27.6V21.4H19.5V20.6H25.1V21.4H22.8V27.6H21.8Z" fill="#979797"/>
<path d="M28 27.6L25.3 20.6H26.3L28.1 25.7C28.2 26.1 28.4 26.5 28.5 26.8C28.6 26.4 28.7 26 28.9 25.7L30.8 20.6H31.7L29 27.6H28Z" fill="#979797"/>
</g>
<defs>
<clipPath id="clip0">
<rect width="50" height="50" fill="white" transform="translate(0.5)"/>
</clipPath>
</defs>
</svg>
