<svg width="51" height="50" viewBox="0 0 51 50" fill="none" xmlns="http://www.w3.org/2000/svg">
<g clip-path="url(#clip0)">
<path d="M25.5 50C39.3071 50 50.5 38.8071 50.5 25C50.5 11.1929 39.3071 0 25.5 0C11.6929 0 0.5 11.1929 0.5 25C0.5 38.8071 11.6929 50 25.5 50Z" fill="#F4F4F4"/>
<path d="M25.5 37.5C32.4036 37.5 38 31.9036 38 25C38 18.0964 32.4036 12.5 25.5 12.5C18.5964 12.5 13 18.0964 13 25C13 31.9036 18.5964 37.5 25.5 37.5Z" fill="#ECECEC" stroke="#979797" stroke-miterlimit="10"/>
<path d="M25.5 36.7V12.8C25.5 12.7 25.4 12.6 25.2 12.7C24 13.7 18.8 18.5 18.8 25.8C18.8 31.3 23.3 35.6 24.9 37C25.1 37.2 25.5 37 25.5 36.7Z" fill="#ECECEC" stroke="#979797" stroke-miterlimit="10"/>
<path d="M25.5 12.5C25.5 12.5 32.2 17.5 32.2 25.8C32.2 34.1 25.5 37.5 25.5 37.5" stroke="#979797" stroke-miterlimit="10"/>
<path d="M38.7 30.8H12.3C11.7 30.8 11.3 30.4 11.3 29.8V20.1C11.3 19.5 11.7 19.1 12.3 19.1H38.6C39.2 19.1 39.6 19.5 39.6 20.1V29.8C39.7 30.4 39.2 30.8 38.7 30.8Z" fill="#ECECEC" stroke="#979797" stroke-miterlimit="10"/>
<path d="M18.3 14.8C18.3 14.8 20.5 15.8 25.5 15.8C30.5 15.8 32.7 14.8 32.7 14.8" stroke="#979797" stroke-miterlimit="10"/>
<path d="M18.3 35.2C18.3 35.2 20.5 34.2 25.5 34.2C30.5 34.2 32.7 35.2 32.7 35.2" stroke="#979797" stroke-miterlimit="10"/>
<path d="M18.7 27.4L17.6 23.5L16.6 27.4H15.6L14 22.6H15L16.1 26.6L17.1 22.6H18.1L19.1 26.6L20.3 22.6H21.2L19.7 27.4H18.7Z" fill="#979797" stroke="#979797" stroke-width="0.1" stroke-miterlimit="10"/>
<path d="M26.5 27.4L25.4 23.5L24.4 27.4H23.3L21.8 22.6H22.7L23.9 26.6L24.9 22.6H25.9L26.9 26.6L28.1 22.6H29L27.5 27.4H26.5Z" fill="#979797" stroke="#979797" stroke-width="0.1" stroke-miterlimit="10"/>
<path d="M34.2 27.4L33.2 23.5L32.1 27.4H31.1L29.6 22.6H30.5L31.6 26.6L32.7 22.6H33.7L34.7 26.6L35.9 22.6H36.8L35.2 27.4H34.2Z" fill="#979797" stroke="#979797" stroke-width="0.1" stroke-miterlimit="10"/>
</g>
<defs>
<clipPath id="clip0">
<rect width="50" height="50" fill="white" transform="translate(0.5)"/>
</clipPath>
</defs>
</svg>
