<svg width="165" height="30" viewBox="0 0 165 30" fill="none" xmlns="http://www.w3.org/2000/svg">
<path d="M52.3083 9.95454H47.1941V23.0455H43.5604V9.95454H38.491V6.90909H52.3083V9.95454Z" fill="black"/>
<path d="M65.4975 10.6363V23.0454H62.0881V21.6363C61.1908 22.7273 59.9347 23.2727 58.2748 23.2727C57.1085 23.2727 56.0766 23 55.1346 22.5C54.1925 21.9545 53.4747 21.2273 52.9364 20.2727C52.398 19.3182 52.1288 18.1818 52.1288 16.9091C52.1288 15.6364 52.398 14.5 52.9364 13.5454C53.4747 12.5909 54.1925 11.8182 55.1346 11.3182C56.0766 10.7727 57.1085 10.5454 58.2748 10.5454C59.845 10.5454 61.0563 11.0454 61.9535 12.0454V10.7273H65.4975V10.6363ZM61.1011 19.3636C61.6843 18.7273 61.9983 17.9091 61.9983 16.8636C61.9983 15.8182 61.6843 15 61.1011 14.3636C60.5179 13.7273 59.7553 13.4091 58.858 13.4091C57.9608 13.4091 57.1982 13.7273 56.615 14.3636C56.0318 15 55.7178 15.8182 55.7178 16.8636C55.7178 17.9091 56.0318 18.7273 56.615 19.3636C57.1982 20 57.9608 20.3182 58.858 20.3182C59.7553 20.2727 60.5179 19.9545 61.1011 19.3636Z" fill="black"/>
<path d="M79.1803 11.2273C80.1224 11.7727 80.8401 12.5 81.3785 13.4545C81.9168 14.4091 82.186 15.5455 82.186 16.8182C82.186 18.0909 81.9168 19.2273 81.3785 20.1818C80.8401 21.1364 80.1224 21.9091 79.1803 22.4091C78.2382 22.9091 77.2064 23.2273 76.0848 23.2273C74.5147 23.2273 73.3034 22.7273 72.4062 21.7273V27.5H68.8622V10.6364H72.2716V12.0455C73.1688 10.9545 74.425 10.4091 76.1297 10.4091C77.2064 10.4545 78.2382 10.7273 79.1803 11.2273ZM77.6998 19.3636C78.283 18.7273 78.5971 17.9091 78.5971 16.8636C78.5971 15.8182 78.283 15 77.6998 14.3636C77.1166 13.7273 76.354 13.4091 75.4568 13.4091C74.5595 13.4091 73.7969 13.7273 73.2137 14.3636C72.6305 15 72.3165 15.8182 72.3165 16.8636C72.3165 17.9091 72.6305 18.7273 73.2137 19.3636C73.7969 20 74.5595 20.3182 75.4568 20.3182C76.354 20.2727 77.1166 19.9545 77.6998 19.3636Z" fill="black"/>
<path d="M84.6533 10.6364H88.1974V18L94.1191 10.6364H97.394V23.0454H93.8499V15.6818L87.8834 23.0454H84.6085L84.6533 10.6364Z" fill="black"/>
<path d="M115.832 21.3636C114.576 22.5 112.737 23.1364 110.404 23.2727V27.5H107.129V23.2727C104.796 23.0909 102.957 22.4545 101.701 21.3636C100.445 20.2727 99.8165 18.7273 99.8165 16.7727C99.8165 14.8636 100.445 13.3636 101.701 12.3182C102.957 11.2727 104.751 10.6364 107.174 10.4545V5.90909H110.449V10.4545C112.781 10.6364 114.621 11.2273 115.877 12.3182C117.133 13.4091 117.761 14.8636 117.761 16.7727C117.716 18.7273 117.088 20.2273 115.832 21.3636ZM104.168 19.3636C104.796 19.9545 105.783 20.3182 107.129 20.5V13.2727C105.783 13.4091 104.796 13.7727 104.168 14.3636C103.54 14.9545 103.226 15.7727 103.226 16.8182C103.271 17.9091 103.54 18.7727 104.168 19.3636ZM113.365 19.3636C113.993 18.7727 114.307 17.9091 114.307 16.8182C114.307 15.7727 113.993 14.9545 113.365 14.3636C112.737 13.7727 111.75 13.4091 110.404 13.2727V20.5C111.75 20.3182 112.737 19.9545 113.365 19.3636Z" fill="black"/>
<path d="M120.139 10.6364H123.683V15.5H129.021V10.6364H132.565V23.0454H129.021V18.4091H123.683V23.0454H120.139V10.6364Z" fill="black"/>
<path d="M135.975 10.6364H139.519V18L145.485 10.6364H148.76V23.0454H145.216V15.6818L139.25 23.0454H135.975V10.6364Z" fill="black"/>
<path d="M157.508 18.3636H155.669V23.0909H152.125V10.6364H155.669V15.4545H157.598L160.918 10.6364H164.686L160.424 16.5909L165 23.0454H160.828L157.508 18.3636Z" fill="black"/>
<path d="M23.1036 18.2273L24.3148 19L14.3556 24.8182L4.39641 19L14.3556 13.1364L15.2977 13.6818L19.6493 11.0909L14.3556 7.95456L0 16.4091V21.5455L14.3556 30L28.7113 21.5455V16.4091L27.5 15.6818L23.1036 18.2273Z" fill="#3343E1"/>
<path d="M14.3556 0L0 8.45455V13.5909L1.25612 14.3182L5.65253 11.7273L4.39641 11L14.3556 5.13636L24.3148 11L14.3556 16.8636L12.3369 15.6818L7.94046 18.2273L14.3556 22.0455L28.7113 13.5909V8.45455L14.3556 0Z" fill="#3343E1"/>
</svg>
